<svg width="44" height="44" viewBox="0 0 44 44" fill="none" xmlns="http://www.w3.org/2000/svg">
<path fill-rule="evenodd" clip-rule="evenodd" d="M22 5.5C17.5186 5.5 16.9576 5.5187 15.1976 5.599C13.4409 5.6793 12.2408 5.9587 11.1914 6.3668C10.0914 6.7804 9.0937 7.4294 8.2687 8.2698C7.42964 9.09385 6.78024 10.0908 6.3657 11.1914C5.9598 12.2408 5.6793 13.442 5.599 15.1987C5.5198 16.9576 5.5 17.5175 5.5 22C5.5 26.4825 5.5187 27.0424 5.599 28.8024C5.6793 30.5591 5.9587 31.7592 6.3668 32.8086C6.7804 33.9086 7.4294 34.9063 8.2698 35.7313C9.09387 36.5703 10.0909 37.2197 11.1914 37.6343C12.2408 38.0413 13.4409 38.3207 15.1976 38.401C16.9576 38.4813 17.5186 38.5 22 38.5C26.4814 38.5 27.0424 38.4813 28.8024 38.401C30.5591 38.3207 31.7592 38.0413 32.8086 37.6332C33.9086 37.2196 34.9063 36.5706 35.7313 35.7302C36.5704 34.9062 37.2198 33.9092 37.6343 32.8086C38.0413 31.7592 38.3207 30.5591 38.401 28.8024C38.4813 27.0424 38.5 26.4814 38.5 22C38.5 17.5186 38.4813 16.9576 38.401 15.1976C38.3207 13.4409 38.0413 12.2408 37.6332 11.1914C37.219 10.0904 36.5695 9.09295 35.7302 8.2687C34.9062 7.42964 33.9092 6.78024 32.8086 6.3657C31.7592 5.9598 30.558 5.6793 28.8013 5.599C27.0424 5.5198 26.4825 5.5 22 5.5ZM22 8.4733C26.4055 8.4733 26.928 8.4898 28.6682 8.569C30.2764 8.6427 31.1498 8.91 31.7317 9.1377C32.5017 9.4358 33.0517 9.7944 33.6292 10.3708C34.2067 10.9483 34.5642 11.4983 34.8623 12.2683C35.0889 12.8502 35.3573 13.7236 35.431 15.3318C35.5102 17.072 35.5267 17.5945 35.5267 22C35.5267 26.4055 35.5102 26.928 35.431 28.6682C35.3573 30.2764 35.09 31.1498 34.8623 31.7317C34.5982 32.4484 34.1769 33.0968 33.6292 33.6292C33.0969 34.177 32.4485 34.5984 31.7317 34.8623C31.1498 35.0889 30.2764 35.3573 28.6682 35.431C26.928 35.5102 26.4066 35.5267 22 35.5267C17.5934 35.5267 17.072 35.5102 15.3318 35.431C13.7236 35.3573 12.8502 35.09 12.2683 34.8623C11.5516 34.5982 10.9032 34.1769 10.3708 33.6292C9.82319 33.0967 9.40184 32.4484 9.1377 31.7317C8.9111 31.1498 8.6427 30.2764 8.569 28.6682C8.4898 26.928 8.4733 26.4055 8.4733 22C8.4733 17.5945 8.4898 17.072 8.569 15.3318C8.6427 13.7236 8.91 12.8502 9.1377 12.2683C9.4358 11.4983 9.7944 10.9483 10.3708 10.3708C10.9031 9.82305 11.5516 9.40167 12.2683 9.1377C12.8502 8.9111 13.7236 8.6427 15.3318 8.569C17.072 8.4898 17.5945 8.4733 22 8.4733V8.4733Z" fill="#242424"/>
<path fill-rule="evenodd" clip-rule="evenodd" d="M21.9996 27.5055C21.2766 27.5055 20.5606 27.3631 19.8927 27.0864C19.2247 26.8097 18.6178 26.4042 18.1066 25.893C17.5953 25.3817 17.1898 24.7748 16.9131 24.1069C16.6365 23.4389 16.4941 22.723 16.4941 22C16.4941 21.277 16.6365 20.5611 16.9131 19.8931C17.1898 19.2252 17.5953 18.6183 18.1066 18.107C18.6178 17.5958 19.2247 17.1903 19.8927 16.9136C20.5606 16.6369 21.2766 16.4945 21.9996 16.4945C23.4597 16.4945 24.86 17.0745 25.8925 18.107C26.925 19.1395 27.505 20.5399 27.505 22C27.505 23.4601 26.925 24.8605 25.8925 25.893C24.86 26.9255 23.4597 27.5055 21.9996 27.5055V27.5055ZM21.9996 13.519C19.7503 13.519 17.5931 14.4125 16.0026 16.003C14.4121 17.5935 13.5186 19.7507 13.5186 22C13.5186 24.2493 14.4121 26.4065 16.0026 27.997C17.5931 29.5875 19.7503 30.481 21.9996 30.481C24.2489 30.481 26.406 29.5875 27.9965 27.997C29.587 26.4065 30.4805 24.2493 30.4805 22C30.4805 19.7507 29.587 17.5935 27.9965 16.003C26.406 14.4125 24.2489 13.519 21.9996 13.519V13.519ZM32.9478 13.365C32.9478 13.8967 32.7366 14.4066 32.3607 14.7826C31.9847 15.1585 31.4748 15.3697 30.9431 15.3697C30.4114 15.3697 29.9015 15.1585 29.5255 14.7826C29.1496 14.4066 28.9383 13.8967 28.9383 13.365C28.9383 12.8333 29.1496 12.3234 29.5255 11.9474C29.9015 11.5715 30.4114 11.3602 30.9431 11.3602C31.4748 11.3602 31.9847 11.5715 32.3607 11.9474C32.7366 12.3234 32.9478 12.8333 32.9478 13.365" fill="#242424"/>
</svg>
