<svg width="44" height="44" viewBox="0 0 44 44" fill="none" xmlns="http://www.w3.org/2000/svg">
<path fill-rule="evenodd" clip-rule="evenodd" d="M40.3337 22C40.3337 32.1252 32.1255 40.3333 22.0003 40.3333C11.8751 40.3333 3.66699 32.1252 3.66699 22C3.66699 11.8748 11.8751 3.66667 22.0003 3.66667C32.1255 3.66667 40.3337 11.8748 40.3337 22ZM22.6573 17.2012C20.8741 17.9429 17.3102 19.478 11.9657 21.8065C11.0978 22.1516 10.6432 22.4892 10.6018 22.8194C10.5319 23.3773 11.2305 23.597 12.182 23.8962C12.3114 23.9369 12.4455 23.979 12.583 24.0237C13.519 24.328 14.7782 24.684 15.4328 24.6981C16.0266 24.711 16.6893 24.4662 17.421 23.9637C22.4146 20.5929 24.9923 18.8892 25.1541 18.8524C25.2683 18.8265 25.4265 18.794 25.5337 18.8892C25.6409 18.9845 25.6303 19.165 25.619 19.2134C25.5498 19.5084 22.8071 22.0582 21.3878 23.3777C20.9454 23.7891 20.6315 24.0809 20.5674 24.1475C20.4236 24.2968 20.2771 24.438 20.1364 24.5737C19.2667 25.4121 18.6146 26.0407 20.1725 27.0674C20.9211 27.5607 21.5202 27.9687 22.1178 28.3757C22.7705 28.8201 23.4216 29.2635 24.2639 29.8156C24.4785 29.9563 24.6834 30.1024 24.883 30.2447C25.6426 30.7862 26.325 31.2728 27.1681 31.1952C27.658 31.1501 28.164 30.6894 28.421 29.3156C29.0284 26.0687 30.2222 19.0338 30.4981 16.1348C30.5223 15.8809 30.4919 15.5558 30.4675 15.4131C30.443 15.2704 30.392 15.0671 30.2065 14.9166C29.9869 14.7384 29.6478 14.7008 29.4961 14.7035C28.8066 14.7156 27.7486 15.0835 22.6573 17.2012Z" fill="#242424"/>
</svg>
