<svg width="44" height="44" viewBox="0 0 44 44" fill="none" xmlns="http://www.w3.org/2000/svg">
<path d="M36.5798 14.5201C36.6022 14.8434 36.6022 15.1666 36.6022 15.4928C36.6022 25.433 29.035 36.897 15.198 36.897V36.891C11.1106 36.897 7.10798 35.7262 3.66699 33.5186C4.26135 33.5901 4.85868 33.6258 5.4575 33.6273C8.84486 33.6303 12.1354 32.4937 14.8003 30.4008C11.5813 30.3398 8.75847 28.2409 7.77235 25.1768C8.89998 25.3943 10.0619 25.3496 11.1687 25.0472C7.65914 24.3381 5.13425 21.2546 5.13425 17.6736C5.13425 17.6409 5.13425 17.6096 5.13425 17.5783C6.17996 18.1607 7.35079 18.484 8.54843 18.5197C5.243 16.3106 4.2241 11.9133 6.22018 8.47531C10.0395 13.175 15.6747 16.0321 21.724 16.3345C21.1177 13.7217 21.946 10.9838 23.9003 9.14712C26.9302 6.299 31.6954 6.44498 34.5436 9.47335C36.2283 9.14117 37.843 8.52298 39.3207 7.64709C38.7591 9.38844 37.5838 10.8676 36.0138 11.8076C37.5049 11.6318 38.9617 11.2326 40.3337 10.6233C39.3237 12.1368 38.0516 13.4551 36.5798 14.5201Z" fill="#242424"/>
</svg>
